<svg id="Logo" xmlns="http://www.w3.org/2000/svg" viewBox="0 0 226 90">
  <defs>
    <style>
      .cls-1 {
        fill: #fff;
      }

      .cls-2 {
        fill: #64b32c;
      }
    </style>
  </defs>
  <title>TeleDE_Logo_RGB</title>
  <g id="logo_3" data-name="logo 3">
    <path class="cls-1" d="M60.47,26.71H42.66V42.34H60.47a2.41,2.41,0,0,1,2.41,2.41h0a2.41,2.41,0,0,1-2.41,2.41H42.66V63.06H60.47a2.41,2.41,0,0,1,2.41,2.41h0a2.41,2.41,0,0,1-2.41,2.41H40a2.41,2.41,0,0,1-2.41-2.41V24.3A2.41,2.41,0,0,1,40,21.89h20.5a2.41,2.41,0,0,1,2.41,2.41h0A2.41,2.41,0,0,1,60.47,26.71Z"/>
    <path class="cls-1" d="M123.64,26.71H105.83V42.34h17.81a2.41,2.41,0,0,1,2.41,2.41h0a2.41,2.41,0,0,1-2.41,2.41H105.83V63.06h17.81a2.41,2.41,0,0,1,2.41,2.41h0a2.41,2.41,0,0,1-2.41,2.41h-20.5a2.41,2.41,0,0,1-2.41-2.41V24.3a2.41,2.41,0,0,1,2.41-2.41h20.5a2.41,2.41,0,0,1,2.41,2.41h0A2.41,2.41,0,0,1,123.64,26.71Z"/>
    <path class="cls-1" d="M16.28,26.71V65.3a2.58,2.58,0,0,1-2.58,2.58h0a2.52,2.52,0,0,1-2.52-2.52V26.71H2.41A2.41,2.41,0,0,1,0,24.3H0a2.41,2.41,0,0,1,2.41-2.41H25a2.41,2.41,0,0,1,2.41,2.41h0A2.41,2.41,0,0,1,25,26.71H16.28Z"/>
    <path class="cls-1" d="M78,24.3V63.06H88.3a2.41,2.41,0,0,1,2.41,2.41h0a2.41,2.41,0,0,1-2.41,2.41h-13a2.41,2.41,0,0,1-2.41-2.41V24.3a2.41,2.41,0,0,1,2.41-2.41h0.28A2.41,2.41,0,0,1,78,24.3Z"/>
  </g>
  <path class="cls-1" d="M169.08,31.19c-4.2-3.71-8.83-4.44-14.24-4.44h-3.71v36.4h3.71c5.6,0,10.29-.79,14.49-4.75A18.17,18.17,0,0,0,175,44.95,18.11,18.11,0,0,0,169.08,31.19Z"/>
  <path class="cls-1" d="M224.46,13A19.11,19.11,0,0,0,213,1.54C208.17,0,203.66,0,194.62,0H167.38c-9,0-13.55,0-18.42,1.54A19.12,19.12,0,0,0,137.54,13C136,17.82,136,22.34,136,31.38V58.62c0,9,0,13.55,1.54,18.41A19.11,19.11,0,0,0,149,88.46C153.83,90,158.34,90,167.38,90h27.24c9,0,13.55,0,18.42-1.54A19.11,19.11,0,0,0,224.46,77C226,72.17,226,67.66,226,58.62V31.38C226,22.34,226,17.82,224.46,13Zm-51.8,49.15c-5.48,4.87-11,5.78-18.14,5.78h-6A2.56,2.56,0,0,1,146,65.34V24.56A2.56,2.56,0,0,1,148.56,22h6.09c6.88,0,12.48.91,17.89,5.54,5.23,4.5,7.61,10.65,7.61,17.47A22.13,22.13,0,0,1,172.67,62.11Z"/>
  <path class="cls-2" d="M213.09,68H192.57a2.4,2.4,0,0,1,0-4.81h20.52A2.4,2.4,0,1,1,213.09,68Z"/>
  <path class="cls-2" d="M213.09,47.28H192.57a2.4,2.4,0,0,1,0-4.81h20.52A2.4,2.4,0,1,1,213.09,47.28Z"/>
  <path class="cls-2" d="M213.09,26.81H192.57a2.4,2.4,0,0,1,0-4.81h20.52A2.4,2.4,0,1,1,213.09,26.81Z"/>
</svg>
